<?xml version="1.0" encoding="UTF-8" standalone="no"?>
<!-- Created with Inkscape (http://www.inkscape.org/) -->
<svg
   xmlns:dc="http://purl.org/dc/elements/1.1/"
   xmlns:cc="http://web.resource.org/cc/"
   xmlns:rdf="http://www.w3.org/1999/02/22-rdf-syntax-ns#"
   xmlns:svg="http://www.w3.org/2000/svg"
   xmlns="http://www.w3.org/2000/svg"
   xmlns:sodipodi="http://sodipodi.sourceforge.net/DTD/sodipodi-0.dtd"
   xmlns:inkscape="http://www.inkscape.org/namespaces/inkscape"
   id="svg2"
   sodipodi:version="0.32"
   inkscape:version="0.44.1"
   width="800.01117"
   height="386.52576"
   version="1.0"
   sodipodi:docbase="C:\Documents and Settings\Administrator\Desktop"
   sodipodi:docname="Red_Bull.svg">
  <metadata
     id="metadata7">
    <rdf:RDF>
      <cc:Work
         rdf:about="">
        <dc:format>image/svg+xml</dc:format>
        <dc:type
           rdf:resource="http://purl.org/dc/dcmitype/StillImage" />
        <dc:title>Red Bull Logo</dc:title>
        <dc:date>2007.2.18</dc:date>
        <dc:creator>
          <cc:Agent>
            <dc:title>Rico Shen</dc:title>
          </cc:Agent>
        </dc:creator>
      </cc:Work>
    </rdf:RDF>
  </metadata>
  <defs
     id="defs5" />
  <sodipodi:namedview
     inkscape:window-height="742"
     inkscape:window-width="1024"
     inkscape:pageshadow="2"
     inkscape:pageopacity="0.0"
     guidetolerance="10000"
     gridtolerance="10000"
     objecttolerance="10000"
     borderopacity="1.0"
     bordercolor="#666666"
     pagecolor="#ffffff"
     id="base"
     inkscape:object-bbox="true"
     inkscape:object-points="true"
     inkscape:object-nodes="true"
     inkscape:grid-points="true"
     inkscape:guide-points="true"
     showgrid="true"
     inkscape:zoom="0.90625"
     inkscape:cx="400"
     inkscape:cy="211.5"
     inkscape:window-x="-4"
     inkscape:window-y="-4"
     inkscape:current-layer="svg2" />
  <path
     id="path1877"
     d="M 388.07175,385.97585 C 367.58425,383.12478 346.62052,371.43975 334.24367,355.97249 L 329.51376,350.06154 L 327.26354,352.93678 C 325.49992,355.19027 323.87957,355.96796 319.77038,356.53312 C 316.88676,356.92971 311.29881,358.54701 307.35272,360.1271 C 303.39951,361.71004 298.27553,363 295.94097,363 C 292.29839,363 291.19908,362.45313 288.10536,359.10202 C 286.12613,356.95815 283.40988,355.04564 282.06924,354.85202 C 280.44649,354.61766 278.71862,352.99582 276.90004,350 C 271.8605,341.69815 273.5898,338.60093 283.41319,338.33479 C 292.80587,338.08033 297.23295,336.49118 294.04239,334.5193 C 292.59962,333.62761 260.93015,333.3823 257.88025,334.23916 C 256.18098,334.71659 254.63203,336.31009 253.5061,338.73916 C 251.08739,343.95725 248.36236,346.69705 242.52473,349.78008 C 238.02435,352.15684 236.55042,352.40857 228.1251,352.23953 C 219.31453,352.06275 218.54811,352.2122 215.6251,354.67715 C 211.34193,358.28909 206.67372,360.08252 203.30756,359.40929 C 200.91272,358.93032 199.89977,359.48956 196.69393,363.06066 L 192.90827,367.27765 L 186.20972,366.66359 C 182.52552,366.32588 178.86278,366.45556 178.0703,366.95175 C 176.48459,367.94466 172.2191,366.16039 170.11364,363.62347 C 169.09667,362.3981 169.26568,361.00732 171.01434,356.21146 C 172.73426,351.49442 174.38181,349.23843 179.2114,344.98726 C 185.80999,339.17893 189.42605,338.25552 192.97951,341.47134 C 195.38125,343.64488 197.44101,342.42483 198.48719,338.20898 C 199.63702,333.5754 202.85484,331 207.49435,331 C 209.76836,331 212.46601,330.3879 213.48913,329.63977 C 215.1382,328.43395 215.22248,327.78125 214.23161,323.88977 C 213.61684,321.4754 212.83659,317.76578 212.49772,315.64617 L 211.88159,311.79235 L 207.4244,312.46074 C 197.46257,313.95461 187.79268,308.30079 184.53952,299.08033 C 181.77841,291.25455 184.55158,283.50973 192.91651,275.68532 C 195.71857,273.0643 198.01117,270.77177 198.01117,270.59078 C 198.01117,270.40977 196.43189,270.00541 194.50167,269.69216 C 190.0912,268.97645 185.42644,265.70373 183.49608,261.97082 C 181.61499,258.33318 181.58274,251.96732 183.43261,249.44112 C 184.82123,247.54482 185.00326,247.57349 191.31486,250.68261 C 194.8683,252.43301 199.51615,254.18066 201.64342,254.56623 C 210.10973,256.10082 214.03366,259.88919 213.97573,266.47251 C 213.928,271.89747 212.19277,274.68865 205.85965,279.52757 C 196.48802,286.68811 193.61653,293.60537 198.13851,298.12734 C 199.9625,299.95133 201.07795,300.18105 205.9609,299.73827 C 212.04229,299.18683 218.93571,296.24336 223.01117,292.45782 C 227.47568,288.31093 236.88076,284 241.46349,284 C 247.32116,284 251.84949,282.27713 256.21611,278.38716 C 261.16389,273.97945 267.1972,271.00329 271.22133,270.98526 C 274.82159,270.96913 276.60816,270.10355 282.93495,265.31014 C 285.2506,263.5557 291.29226,260.73868 296.36087,259.05007 C 301.42947,257.36146 307.23081,254.85574 309.25274,253.48181 C 314.51799,249.90398 321.99466,248.34639 326.75379,249.83585 L 330.51117,251.0118 L 335.76609,245.10804 C 346.78483,232.72882 362.27905,223.22801 378.51117,218.89751 C 388.13518,216.32994 408.09819,215.81247 417.51117,217.88656 C 426.97773,219.97246 438.29704,224.70083 446.21973,229.87889 C 453.23191,234.46184 464.58774,244.89793 467.65318,249.57637 C 469.01031,251.64763 469.33442,251.71307 471.818,250.41736 C 476.59905,247.92304 484.52801,249.24055 490.93438,253.59379 C 492.86568,254.90613 498.59287,257.36146 503.66147,259.05007 C 508.73008,260.73868 514.77174,263.5557 517.08739,265.31014 C 523.41418,270.10355 525.20075,270.96913 528.80101,270.98526 C 532.82514,271.00329 538.85845,273.97945 543.80623,278.38716 C 548.17285,282.27713 552.70118,284 558.55885,284 C 563.14158,284 572.54666,288.31093 577.01117,292.45782 C 581.08663,296.24336 587.98005,299.18683 594.06144,299.73827 C 598.94439,300.18105 600.05984,299.95133 601.88383,298.12734 C 606.40581,293.60537 603.53432,286.68811 594.16269,279.52757 C 587.82957,274.68865 586.09434,271.89747 586.04661,266.47251 C 585.98868,259.88919 589.91261,256.10082 598.37892,254.56623 C 600.50619,254.18066 605.15404,252.43301 608.70748,250.68261 C 615.01908,247.57349 615.20111,247.54482 616.58973,249.44112 C 618.4396,251.96732 618.40735,258.33318 616.52626,261.97082 C 614.5959,265.70373 609.93114,268.97645 605.52067,269.69216 C 603.59045,270.00541 602.01117,270.41854 602.01117,270.61026 C 602.01117,270.80197 604.06796,272.85469 606.58182,275.1719 C 615.16733,283.08574 618.22671,291.30336 615.48282,299.08033 C 612.22966,308.30079 602.55977,313.95461 592.59794,312.46074 L 588.14075,311.79235 L 587.52462,315.64617 C 587.18575,317.76578 586.4055,321.4754 585.79073,323.88977 C 584.79986,327.78125 584.88414,328.43395 586.53321,329.63977 C 587.55633,330.3879 590.25398,331 592.52799,331 C 597.1675,331 600.38532,333.5754 601.53515,338.20898 C 602.58133,342.42483 604.64109,343.64488 607.04283,341.47134 C 610.59629,338.25552 614.21235,339.17893 620.81094,344.98726 C 625.64053,349.23843 627.28808,351.49442 629.008,356.21146 C 630.75666,361.00732 630.92567,362.3981 629.9087,363.62347 C 627.80324,366.16039 623.53775,367.94466 621.95204,366.95175 C 621.15956,366.45556 617.49682,366.32588 613.81262,366.66359 L 607.11407,367.27765 L 603.32841,363.06066 C 600.12257,359.48956 599.10962,358.93032 596.71478,359.40929 C 593.34862,360.08252 588.68041,358.28909 584.39724,354.67715 C 581.47423,352.2122 580.70781,352.06275 571.89724,352.23953 C 563.47192,352.40857 561.99799,352.15684 557.49761,349.78008 C 551.65998,346.69705 548.93495,343.95725 546.51624,338.73916 C 545.39031,336.31009 543.84136,334.71659 542.14209,334.23916 C 539.09219,333.3823 507.42272,333.62761 505.97995,334.5193 C 502.78939,336.49118 507.21647,338.08033 516.60915,338.33479 C 522.92445,338.5059 526.02892,340.00791 525.98781,342.87244 C 525.97496,343.76761 524.73746,346.75 523.23781,349.5 C 521.26984,353.10879 519.81617,354.59795 518.01337,354.85202 C 516.63958,355.04564 513.89621,356.95815 511.91698,359.10202 C 508.83176,362.44392 507.71862,363 504.11418,363 C 501.80187,363 496.44524,361.6771 492.21057,360.06018 C 487.9759,358.44331 482.38617,356.8426 479.78896,356.50309 C 476.14252,356.02641 474.53357,355.20452 472.72635,352.89532 L 470.38596,349.90486 L 465.94856,355.53677 C 456.10027,368.03617 437.62509,379.87875 421.56602,383.98598 C 412.57974,386.28429 396.95738,387.21239 388.07175,385.97585 z "
     style="fill:#daa44b"
     sodipodi:nodetypes="ccccsssssssssssssscccssssssssscccssssssssssssssssssscccsssssssssssssssssssssssscccssssssssscccssssssssssssssscccsc" />
  <path
     id="path1875"
     d="M 183.15428,364.1096 C 180.72805,362.57227 182.77148,357.07396 186.61096,354.80863 C 188.48108,353.70522 190.01117,352.41852 190.01117,351.94926 C 190.01117,351.48001 192.04135,349.69928 194.52268,347.99208 C 197.38731,346.02117 199.93054,343.11922 201.48968,340.04242 C 203.83036,335.42332 204.18344,335.16398 209.04164,334.49581 C 212.103,334.07477 215.19656,332.88444 216.7887,331.51495 C 219.20817,329.43381 219.32941,328.99388 218.17922,326.46947 C 217.48618,324.94844 216.52727,320.58297 216.04831,316.76844 C 215.56934,312.95392 215.01525,309.67075 214.81701,309.47251 C 214.61877,309.27427 211.99386,309.43917 208.98387,309.83893 C 198.17606,311.27436 192.22057,308.72828 188.26117,300.97958 C 183.99421,292.62894 186.07157,286.71481 196.61379,277.20009 C 204.30988,270.25408 204.46761,268.53698 197.4819,267.7496 C 191.76366,267.10506 188.12131,264.59918 185.63881,259.60172 C 184.15945,256.62366 183.99307,255.33513 184.84616,253.46281 L 185.92587,251.09311 L 190.62781,253.72107 C 193.21388,255.16646 197.61129,256.7097 200.39983,257.15051 C 212.30728,259.03284 215.7322,268.15004 207.24836,275.3814 C 196.73408,284.34344 193.94132,287.52887 193.35039,291.23348 C 192.01469,299.60704 197.37123,304.65549 206.58278,303.70477 C 212.63667,303.07995 216.5087,301.2912 223.73384,295.78157 C 229.77889,291.17183 239.12734,287.05798 243.63544,287.02373 C 248.5766,286.9862 255.20501,284.20633 259.01117,280.57536 C 263.69798,276.10429 266.12673,274.97312 273.18056,273.97607 C 278.14717,273.27403 279.86659,272.46623 283.47617,269.13903 C 286.62738,266.23433 289.76707,264.56176 294.986,263.0075 C 298.93312,261.832 305.52489,259.09943 309.63438,256.93512 C 317.93611,252.5629 323.7821,251.84839 329.40844,254.51827 C 334.59852,256.98113 353.44035,272.45628 357.60802,277.67913 C 359.72383,280.3306 362.9106,284.16722 364.68974,286.20495 C 369.48146,291.69306 372.09505,297.49867 373.10575,304.8995 C 374.3688,314.14812 378.79735,327.66625 381.53019,330.61503 C 382.79408,331.97877 384.57448,334.66731 385.48663,336.58952 C 386.39878,338.51173 388.97184,341.40776 391.20453,343.02511 C 394.40207,345.34141 394.91818,346.09846 393.63534,346.59074 C 391.03367,347.58909 386.94862,346.11354 384.64186,343.34222 C 378.47808,335.93719 375.6806,332.99723 375.22843,333.44941 C 374.95219,333.72564 375.28356,334.62329 375.96481,335.44414 C 376.64607,336.265 377.75807,338.86338 378.43593,341.2183 C 379.4079,344.59499 380.6443,346.1341 384.28549,348.5 C 389.70421,352.02087 390.08993,353 386.05822,353 C 382.2446,353 378.33261,351.27736 374.22637,347.78984 C 370.33274,344.48289 369.75751,344.41913 366.22068,346.90236 C 364.38313,348.1925 361.09756,348.97245 356.01117,349.32597 C 351.88617,349.61269 346.83812,350.55663 344.79329,351.42362 C 340.09307,353.41652 337.57189,353.41787 335.5826,351.42857 C 333.55902,349.40499 333.57756,345.59141 335.62618,342.46481 C 337.16455,340.11696 337.14232,340 335.15756,340 C 332.64449,340 333.15714,337.7808 336.5436,334 C 337.77519,332.625 339.52078,330.03751 340.42269,328.25 L 342.06253,325 L 338.0512,325 C 335.84497,325 332.02288,325.53947 329.55766,326.19881 C 327.09245,326.85816 324.77708,327.09925 324.4124,326.73458 C 324.04772,326.36989 324.53463,324.41665 325.49442,322.39405 C 327.69554,317.75554 328.815,310.38518 327.16337,311.40594 C 326.52966,311.7976 326.01117,313.14896 326.01117,314.40898 C 326.01117,315.669 324.65835,318.56743 323.0049,320.84997 C 320.6219,324.13959 319.37144,325 316.97351,325 C 313.61335,325 312.08631,327.26335 313.6794,329.88248 C 319.40757,339.29992 320.3933,342.11634 319.34101,346.05876 C 318.17282,350.43539 319.0775,351.17109 321.45447,347.77749 C 323.75606,344.49151 323.36601,340.94651 320.01117,334.65965 C 318.36117,331.56764 317.01117,328.77441 317.01117,328.45247 C 317.01117,328.13055 318.23484,328.00955 319.73043,328.18358 C 323.80626,328.65786 328.51117,336.1027 328.51117,342.07784 C 328.51117,348.25214 324.5377,353.62507 319.24211,354.61149 C 317.19009,354.99374 311.71426,356.58752 307.07358,358.15324 C 295.79961,361.95698 293.96895,361.86041 289.94701,357.25 C 288.14777,355.1875 285.80233,353.26975 284.73493,352.98832 C 282.67364,352.44486 276.29176,344.38608 277.2019,343.47593 C 277.49783,343.18001 279.99493,342.67082 282.75102,342.34441 C 288.17895,341.70155 287.66022,341.3868 294.13195,349.25 C 296.28409,351.86487 298.01943,352.99888 299.86476,352.99626 C 302.89225,352.99199 308.80904,349.69032 309.63187,347.54605 C 310.53785,345.18512 307.22348,340.75928 301.39008,336.54037 C 298.37887,334.36255 294.92426,330.98755 293.71316,329.04037 L 291.51117,325.5 L 291.01117,329 L 290.51117,332.5 L 285.51117,332.2312 C 282.76117,332.08337 275.11117,331.79976 268.51117,331.60096 C 261.91117,331.40216 255.92571,331.18561 255.21014,331.11976 C 252.93062,330.90992 250.77269,324.07597 251.48534,319.32367 C 251.86836,316.76955 251.73955,315 251.17063,315 C 250.64093,315 249.89504,317.69255 249.51309,320.98345 C 247.92166,334.69536 241.80556,340.1792 226.01117,342.05587 C 220.78617,342.6767 214.67003,343.85198 212.41975,344.66762 C 208.26655,346.17298 203.01117,350.29127 203.01117,352.04047 C 203.01117,353.43611 204.12369,353.21558 205.40093,351.56676 C 206.01156,350.77848 208.71569,348.97848 211.41011,347.56676 C 215.47997,345.43439 217.6604,345 224.29409,345 C 235.53631,345 239.54248,343.56347 245.67493,337.33328 C 249.4715,333.47621 251.09689,332.40664 251.81392,333.29361 C 253.0523,334.82552 248.36181,343.84567 245.51546,345.40598 C 244.41782,346.00769 242.16782,347.39999 240.51546,348.5 C 237.93866,350.21542 236.11748,350.46274 227.71675,350.23811 L 217.92233,349.97623 L 213.32295,353.48811 C 209.45646,356.44041 207.9134,357 203.63925,357 C 198.98361,357 198.24666,357.33725 194.89858,361 C 192.00813,364.16211 190.53723,364.99678 187.87669,364.98469 C 186.02566,364.97627 183.90057,364.58247 183.15428,364.1096 z M 358.57004,340.56732 C 360.082,339.45139 360.24616,338.86579 359.31252,337.91868 C 358.37253,336.9651 357.55641,337.06795 355.53065,338.39529 C 352.99544,340.05641 352.91371,342 355.37906,342 C 356.06648,342 357.50242,341.35529 358.57004,340.56732 z M 368.01117,318.68178 C 368.01117,315.13579 362.65291,307 360.31749,307 C 359.62137,307 358.13353,308.80001 357.01117,311 C 354.8648,315.20723 355.21492,316.03058 358.05672,313.45878 C 359.60473,312.05784 360.04427,312.15697 362.88546,314.54767 C 364.79493,316.15438 366.01117,318.11597 366.01117,319.58889 C 366.01117,320.91501 366.46117,322 367.01117,322 C 367.56117,322 368.01117,320.5068 368.01117,318.68178 z M 328.97416,282.82813 C 327.94537,279.10217 325.46647,276.21137 324.30025,277.37759 C 323.93582,277.74201 324.7342,280.25304 326.07441,282.95765 C 328.79716,288.4523 330.50599,288.37597 328.97416,282.82813 z M 605.12376,361 C 601.77568,357.33725 601.03873,357 596.38309,357 C 592.10894,357 590.56588,356.44041 586.69939,353.48811 L 582.10001,349.97623 L 572.30559,350.23811 C 563.90486,350.46274 562.08368,350.21542 559.50688,348.5 C 557.85452,347.39999 555.60452,346.00769 554.50688,345.40598 C 551.66053,343.84567 546.97004,334.82552 548.20842,333.29361 C 548.92545,332.40664 550.55084,333.47621 554.34741,337.33328 C 560.45985,343.54315 564.49101,345 575.56147,345 C 583.76979,345 589.29147,346.81757 593.77616,350.99568 C 596.15278,353.20984 597.01117,353.48708 597.01117,352.04047 C 597.01117,350.29127 591.75579,346.17298 587.60259,344.66762 C 585.35231,343.85198 579.29718,342.67597 574.14675,342.05426 C 557.49887,340.04472 552.30545,335.36706 550.4935,320.75 C 550.10147,317.58749 549.355,315 548.83467,315 C 548.28584,315 548.16086,316.81536 548.537,319.32367 C 549.24965,324.07597 547.09172,330.90992 544.8122,331.11976 C 544.09663,331.18561 538.11117,331.40216 531.51117,331.60096 C 524.91117,331.79976 517.26117,332.08337 514.51117,332.2312 L 509.51117,332.5 L 509.01117,329 L 508.51117,325.5 L 506.30918,329.04037 C 505.09808,330.98755 501.64347,334.36255 498.63226,336.54037 C 492.79886,340.75928 489.48449,345.18512 490.39047,347.54605 C 491.2133,349.69032 497.13009,352.99199 500.15758,352.99626 C 502.00291,352.99888 503.73825,351.86487 505.89039,349.25 C 512.36212,341.3868 511.84339,341.70155 517.27132,342.34441 C 520.02741,342.67082 522.52451,343.18001 522.82044,343.47593 C 523.73058,344.38608 517.3487,352.44486 515.28741,352.98832 C 514.22001,353.26975 511.87457,355.1875 510.07533,357.25 C 506.05339,361.86041 504.22273,361.95698 492.94876,358.15324 C 488.30808,356.58752 482.83225,354.99374 480.78023,354.61149 C 475.48464,353.62507 471.51117,348.25214 471.51117,342.07784 C 471.51117,336.1027 476.21608,328.65786 480.29191,328.18358 C 481.7875,328.00955 483.01117,328.13055 483.01117,328.45247 C 483.01117,328.77441 481.66117,331.56764 480.01117,334.65965 C 476.65633,340.94651 476.26628,344.49151 478.56787,347.77749 C 480.96167,351.19511 481.84683,350.4253 480.65548,345.96191 C 479.90477,343.14936 479.89414,341.40427 480.62046,340.21191 C 484.63123,333.62768 487.17852,327.87849 486.67102,326.55597 C 486.31281,325.62249 484.86369,325 483.04883,325 C 480.6509,325 479.40044,324.13959 477.01744,320.84997 C 475.36399,318.56743 474.01117,315.669 474.01117,314.40898 C 474.01117,313.14896 473.49268,311.7976 472.85897,311.40594 C 471.20734,310.38518 472.3268,317.75554 474.52792,322.39405 C 475.48771,324.41665 475.97462,326.36989 475.60994,326.73458 C 475.24526,327.09925 472.92989,326.85816 470.46468,326.19881 C 467.99946,325.53947 464.17737,325 461.97114,325 L 457.95981,325 L 459.59965,328.25 C 460.50156,330.03751 462.24715,332.625 463.47874,334 C 466.8652,337.7808 467.37785,340 464.86478,340 C 462.88002,340 462.85779,340.11696 464.39616,342.46481 C 466.44478,345.59141 466.46332,349.40499 464.43974,351.42857 C 462.45045,353.41787 459.92927,353.41652 455.22905,351.42362 C 453.18422,350.55663 448.13617,349.61269 444.01117,349.32597 C 438.92478,348.97245 435.63921,348.1925 433.80166,346.90236 C 430.26483,344.41913 429.6896,344.48289 425.79597,347.78984 C 421.68973,351.27736 417.77774,353 413.96412,353 C 409.93241,353 410.31813,352.02087 415.73685,348.5 C 419.37804,346.1341 420.61444,344.59499 421.58641,341.2183 C 422.26427,338.86338 423.37627,336.265 424.05753,335.44414 C 424.73878,334.62329 425.07015,333.72564 424.79391,333.44941 C 424.34174,332.99723 421.54426,335.93719 415.38048,343.34222 C 413.07372,346.11354 408.98867,347.58909 406.387,346.59074 C 405.10416,346.09846 405.62027,345.34141 408.81781,343.02511 C 411.0505,341.40776 413.62356,338.51173 414.53571,336.58952 C 415.44786,334.66731 417.22826,331.97877 418.49215,330.61503 C 421.22499,327.66625 425.65354,314.14812 426.91659,304.8995 C 427.92729,297.49867 430.54088,291.69306 435.3326,286.20495 C 437.11174,284.16722 440.29851,280.3306 442.41432,277.67913 C 446.58199,272.45628 465.42382,256.98113 470.6139,254.51827 C 476.24024,251.84839 482.08623,252.5629 490.38796,256.93512 C 494.49745,259.09943 501.08922,261.832 505.03634,263.0075 C 510.25527,264.56176 513.39496,266.23433 516.54617,269.13903 C 520.14966,272.4606 521.87845,273.2745 526.81151,273.97179 C 533.77961,274.95671 537.42906,276.6832 541.42265,280.88399 C 544.43345,284.05102 550.24225,286.35841 557.96869,287.4565 C 563.913,288.30131 570.31364,291.22875 576.4598,295.91373 C 583.51259,301.28981 587.42227,303.08373 593.43956,303.70477 C 602.65111,304.65549 608.00765,299.60704 606.67195,291.23348 C 606.08102,287.52887 603.28826,284.34344 592.77398,275.3814 C 584.29014,268.15004 587.71506,259.03284 599.62251,257.15051 C 602.41105,256.7097 606.80846,255.16646 609.39453,253.72107 L 614.09647,251.09311 L 615.17618,253.46281 C 616.02927,255.33513 615.86289,256.62366 614.38353,259.60172 C 611.90103,264.59918 608.25868,267.10506 602.54044,267.7496 C 595.55473,268.53698 595.71246,270.25408 603.40855,277.20009 C 613.95077,286.71481 616.02813,292.62894 611.76117,300.97958 C 607.80177,308.72828 601.84628,311.27436 591.03847,309.83893 C 588.02848,309.43917 585.40357,309.27427 585.20533,309.47251 C 585.00709,309.67075 584.453,312.95392 583.97403,316.76844 C 583.49507,320.58297 582.53616,324.94844 581.84312,326.46947 C 580.69293,328.99388 580.81417,329.43381 583.23364,331.51495 C 584.82578,332.88444 587.91934,334.07477 590.9807,334.49581 C 595.8389,335.16398 596.19198,335.42332 598.53266,340.04242 C 600.0918,343.11922 602.63503,346.02117 605.49966,347.99208 C 607.98099,349.69928 610.01117,351.48001 610.01117,351.94926 C 610.01117,352.41852 611.54126,353.70522 613.41138,354.80863 C 615.72387,356.17303 617.03765,357.84407 617.51827,360.03231 C 618.35251,363.83058 617.12505,364.96203 612.14565,364.98469 C 609.48511,364.99678 608.01421,364.16211 605.12376,361 z M 446.48402,341.04393 C 446.809,340.51808 445.91246,339.32619 444.49169,338.39529 C 442.46593,337.06795 441.64981,336.9651 440.70982,337.91868 C 439.77618,338.86579 439.94034,339.45139 441.4523,340.56732 C 443.6991,342.2256 445.64008,342.40945 446.48402,341.04393 z M 434.01117,319.58889 C 434.01117,318.11597 435.22741,316.15438 437.13688,314.54767 C 439.97807,312.15697 440.41761,312.05784 441.96562,313.45878 C 444.80742,316.03058 445.15754,315.20723 443.01117,311 C 441.88881,308.80001 440.40097,307 439.70485,307 C 437.36943,307 432.01117,315.13579 432.01117,318.68178 C 432.01117,320.5068 432.46117,322 433.01117,322 C 433.56117,322 434.01117,320.91501 434.01117,319.58889 z M 475.73702,277.39252 C 474.56509,276.22058 472.08517,279.07248 471.06578,282.76439 C 469.5024,288.42648 471.00933,288.62223 473.82623,283.12298 C 475.2498,280.34384 476.10965,277.76513 475.73702,277.39252 z M 174.26812,363.17996 C 173.27941,362.55208 173.28841,361.48098 174.31209,357.94528 C 175.38461,354.24089 176.00846,353.5 178.05514,353.5 C 180.0773,353.5 180.46542,353.94164 180.2522,356 C 179.86776,359.71123 177.92652,364.00214 176.63985,363.98469 C 176.01908,363.97627 174.9518,363.61415 174.26812,363.17996 z M 621.14146,361.25 C 620.52967,359.73751 619.91257,357.375 619.77014,356 C 619.55692,353.94164 619.94504,353.5 621.9672,353.5 C 624.01388,353.5 624.63773,354.24089 625.71025,357.94528 C 626.73393,361.48098 626.74293,362.55208 625.75422,363.17996 C 623.54137,364.58524 622.27647,364.05602 621.14146,361.25 z M 612.57429,348.92127 C 608.9864,345.77108 608.70886,343.97206 611.82019,344.03328 C 614.09006,344.07793 618.01117,347.44613 618.01117,349.35127 C 618.01117,352.20313 616.14391,352.05543 612.57429,348.92127 z M 182.19162,348.92852 C 182.5967,346.3026 187.17657,343.46576 189.54413,344.37428 C 191.14961,344.99037 191.04309,345.35724 188.48286,348.02954 C 185.09909,351.56145 181.71077,352.04562 182.19162,348.92852 z M 296.32732,346.25 C 295.38644,344.1875 294.43406,342.13595 294.2109,341.69099 C 293.98775,341.24605 295.95888,341.02105 298.59118,341.19099 C 302.93862,341.47168 303.4488,341.76945 304.15862,344.44039 C 305.09719,347.97211 303.727,350 300.40215,350 C 298.64104,350 297.60165,349.04346 296.32732,346.25 z M 496.16918,348.69039 C 495.50234,347.8869 495.38429,346.24444 495.86372,344.44039 C 496.57354,341.76945 497.08372,341.47168 501.43116,341.19099 C 504.06346,341.02105 506.03459,341.24605 505.81144,341.69099 C 505.58828,342.13595 504.6359,344.1875 503.69502,346.25 C 502.42069,349.04346 501.3813,350 499.62019,350 C 498.31992,350 496.76696,349.41069 496.16918,348.69039 z M 620.51117,188.06769 C 600.97582,184.8869 586.40042,175.6274 579.78528,162.19524 L 576.51117,155.54706 L 576.22717,117.27354 L 575.94317,79 L 592.97717,79 L 610.01117,79 L 610.01117,111.26547 C 610.01117,143.30136 610.02806,143.56283 612.38565,148.01546 C 618.69493,159.93141 634.47315,162.67934 644.75392,153.65271 C 651.76889,147.4935 651.96459,146.33304 651.98921,110.75 L 652.01117,79 L 669.04517,79 L 686.07917,79 L 685.79517,117.25 L 685.51117,155.49999 L 682.75066,161.12114 C 674.5232,177.8745 657.35763,187.84352 635.51117,188.55577 C 630.01117,188.73509 623.26117,188.51545 620.51117,188.06769 z M 173.51117,184.37012 C 151.8408,180.99969 133.43016,163.44852 126.4775,139.53218 C 124.49967,132.72867 124.92594,120.51557 127.47177,111.04534 C 132.83743,91.085636 147.9138,76.691514 169.01117,71.385699 C 178.04066,69.114856 195.98223,69.893232 205.01117,72.94752 C 218.52982,77.520576 228.71889,86.567032 234.4497,99.084762 C 237.93562,106.69903 240.1603,118.33999 239.80759,127.12073 L 239.51117,134.49999 L 200.76117,134.76173 L 162.01117,135.0235 L 162.03313,137.76173 C 162.12553,149.28184 177.44715,159.78792 190.17455,157.05837 C 197.43969,155.50028 201.44789,153.36587 205.47084,148.91296 L 208.97749,145.03151 L 222.95125,151.18439 L 236.92501,157.33726 L 235.21809,160.33922 C 229.79531,169.87624 217.07023,179.02211 204.44822,182.45438 C 198.53569,184.06218 179.22108,185.2582 173.51117,184.37012 z M 205.01117,111.46016 C 205.01117,104.77316 197.35872,96.197178 189.40466,93.970179 C 177.37826,90.602995 164.25683,98.549049 162.3402,110.35983 L 161.74949,114 L 183.38033,114 L 205.01117,114 L 205.01117,111.46016 z M 298.01117,183.17701 C 288.14572,179.86752 281.64385,175.85106 274.42827,168.60894 C 266.13862,160.28881 261.85475,152.27701 259.55476,140.79215 C 255.24147,119.25396 259.77556,102.22172 273.48937,88.447035 C 285.88097,76.000434 296.86233,71.480091 312.89823,72.224852 C 324.15109,72.747473 331.27809,75.009438 339.97917,80.819793 C 343.23703,82.995311 346.15199,84.525843 346.45686,84.220974 C 346.76173,83.916105 347.01437,67.879167 347.01828,48.583333 C 347.02219,29.2875 347.31226,10.4625 347.66288,6.75 L 348.30038,-1.5987212e-014 L 364.65577,-1.5987212e-014 L 381.01117,-1.5987212e-014 L 381.01117,91 L 381.01117,181.99999 L 363.51117,181.99999 L 346.01117,181.99999 L 346.01117,176.49999 C 346.01117,170.52099 345.3339,169.88091 342.41737,173.10364 C 334.31806,182.05328 310.65963,187.42011 298.01117,183.17701 z M 331.79136,152.42224 C 351.48743,142.60727 351.6886,113.01095 332.1287,102.79274 C 312.14061,92.350835 289.82161,112.63673 296.40028,135.26654 C 301.12716,151.52642 317.58222,159.50295 331.79136,152.42224 z M 706.25588,93.25 L 706.51117,2.5 L 723.26117,2.225821 L 740.01117,1.9516421 L 740.01117,92.975821 L 740.01117,183.99999 L 723.00588,183.99999 L 706.00059,183.99999 L 706.25588,93.25 z M 766.01117,93 L 766.01117,2 L 783.01117,2 L 800.01117,2 L 800.01117,93 L 800.01117,183.99999 L 783.01117,183.99999 L 766.01117,183.99999 L 766.01117,93 z M 468.76117,182.25948 L 432.01117,181.97535 L 432.01117,95.906239 L 432.01117,9.8371203 L 470.76117,10.240555 C 504.54211,10.592256 510.21646,10.873313 515.01117,12.432306 C 532.18374,18.015937 540.52078,26.267113 545.68105,42.786307 C 547.79375,49.549566 548.18312,52.419002 547.79942,58.39779 C 547.22423,67.360502 543.2274,76.586044 537.15336,82.971187 C 534.87516,85.366077 533.0201,87.589788 533.03101,87.912767 C 533.04193,88.235745 535.37517,89.85 538.21599,91.5 C 546.58431,96.360465 555.53854,105.77717 559.25575,113.62646 C 562.20308,119.85005 562.5052,121.35103 562.45077,129.5 C 562.3763,140.65195 560.78154,147.5441 556.25801,156.26356 C 549.99059,168.34452 537.95427,177.26899 523.64802,180.44264 C 514.80507,182.40432 509.63357,182.57549 468.76117,182.25948 z M 512.29329,150.64778 C 516.63284,148.82419 521.69389,143.45753 523.19935,139.08316 C 524.91522,134.09737 524.68489,124.13682 522.76962,120.5 C 520.81645,116.79121 516.537,112.74571 512.31361,110.6156 C 508.55351,108.71915 490.56208,106.56509 484.34005,107.2664 L 480.01117,107.75433 L 480.01117,93.023899 L 480.01117,78.293472 L 487.26117,77.676163 C 496.95342,76.850906 502.99579,74.642823 507.07293,70.436279 C 510.11306,67.299657 510.48666,66.276757 510.83341,60.140109 C 511.30666,51.764834 508.95388,46.370709 503.29226,42.850772 C 499.80529,40.682858 498.24714,40.472559 483.26117,40.147228 L 467.01117,39.794456 L 467.01117,95.897228 L 467.01117,151.99999 L 488.04329,151.99999 C 503.46386,151.99999 509.93396,151.6392 512.29329,150.64778 z M 81.547128,177.2482 C 79.916905,174.63669 71.479405,161.30726 62.797128,147.62723 L 47.011169,122.75448 L 47.011169,102.94919 L 47.011169,83.143913 L 52.761169,82.54568 C 60.100313,81.782112 68.60009,79.344868 72.770017,76.808302 C 83.357931,70.367674 83.893716,52.25014 73.759408,43.352101 C 68.051457,38.340453 61.344435,36.601651 47.511169,36.547219 L 35.511169,36.5 L 35.25455,108.25 L 34.997931,179.99999 L 17.498966,179.99999 L 0,179.99999 L 0.255585,94.25 L 0.511169,8.5 L 36.011169,8.1929742 C 60.188122,7.983877 73.265444,8.2550771 77.011169,9.0432402 C 91.827709,12.160887 104.56439,22.361623 111.87309,36.963956 C 124.03402,61.26076 117.86587,84.345948 95.202446,99.356198 C 91.522244,101.79364 85.826778,104.9138 82.545857,106.28989 C 79.264935,107.66598 76.460788,109.1762 76.314419,109.64594 C 76.16805,110.11567 87.289773,126.25 101.02936,145.49999 C 114.76894,164.74999 126.01059,180.83749 126.0108,181.24999 C 126.011,181.66249 116.67367,181.99919 105.26117,181.9982 L 84.511169,181.99641 L 81.547128,177.2482 z "
     style="fill:#ba2132" />
</svg>
